<svg width="17" height="18" viewBox="0 0 17 18" fill="none" xmlns="http://www.w3.org/2000/svg">
<path d="M12.4897 3.68734L12.8754 4.35541V4.35541L12.4897 3.68734ZM15.2998 4.4403L15.9679 4.05459V4.05459L15.2998 4.4403ZM15.8141 5.33107L15.146 5.71679L15.8141 5.33107ZM15.0611 8.14118L15.4468 8.80926L15.0611 8.14118ZM15.0611 9.85877L14.6754 10.5268L15.0611 9.85877ZM15.8141 12.6689L16.4822 13.0546L15.8141 12.6689ZM15.2998 13.5596L14.6318 13.1739L15.2998 13.5596ZM12.4897 14.3126L12.8754 13.6445L12.4897 14.3126ZM4.3719 14.3126L3.98618 13.6445H3.98618L4.3719 14.3126ZM1.56179 13.5596L2.22986 13.1739H2.22986L1.56179 13.5596ZM1.0475 12.6689L0.379426 13.0546H0.379426L1.0475 12.6689ZM1.80047 9.85877L1.41475 9.19069H1.41475L1.80047 9.85877ZM1.80049 8.14118L1.41478 8.80926H1.41478L1.80049 8.14118ZM1.04753 5.33107L0.37945 4.94536H0.379449L1.04753 5.33107ZM1.56181 4.4403L2.22989 4.82602L1.56181 4.4403ZM4.37192 3.68734L3.98621 4.35541L4.37192 3.68734ZM7.91643 0.771429V0C6.35425 0 5.08786 1.26639 5.08786 2.82857H5.85929H6.63072C6.63072 2.11849 7.20635 1.54286 7.91643 1.54286V0.771429ZM8.945 0.771429V0H7.91643V0.771429V1.54286H8.945V0.771429ZM11.0021 2.82857H11.7736C11.7736 1.26639 10.5072 0 8.945 0V0.771429V1.54286C9.65508 1.54286 10.2307 2.11849 10.2307 2.82857H11.0021ZM15.2998 4.4403L15.9679 4.05459C15.1868 2.70171 13.4569 2.23817 12.104 3.01926L12.4897 3.68734L12.8754 4.35541C13.4904 4.00037 14.2767 4.21107 14.6317 4.82602L15.2998 4.4403ZM15.8141 5.33107L16.4822 4.94536L15.9679 4.05459L15.2998 4.4403L14.6317 4.82602L15.146 5.71679L15.8141 5.33107ZM15.0611 8.14118L15.4468 8.80926C16.7997 8.02817 17.2633 6.29824 16.4822 4.94536L15.8141 5.33107L15.146 5.71679C15.5011 6.33174 15.2904 7.11807 14.6754 7.47311L15.0611 8.14118ZM15.8141 12.6689L16.4822 13.0546C17.2633 11.7017 16.7997 9.97178 15.4469 9.19069L15.0611 9.85877L14.6754 10.5268C15.2904 10.8819 15.5011 11.6682 15.146 12.2832L15.8141 12.6689ZM15.2998 13.5596L15.9679 13.9454L16.4822 13.0546L15.8141 12.6689L15.146 12.2832L14.6318 13.1739L15.2998 13.5596ZM12.4897 14.3126L12.104 14.9807C13.4569 15.7618 15.1868 15.2982 15.9679 13.9454L15.2998 13.5596L14.6318 13.1739C14.2767 13.7889 13.4904 13.9996 12.8754 13.6445L12.4897 14.3126ZM8.945 17.2286V18C10.5072 18 11.7736 16.7336 11.7736 15.1714H11.0021H10.2307C10.2307 15.8815 9.65508 16.4571 8.945 16.4571V17.2286ZM7.91643 17.2286V18H8.945V17.2286V16.4571H7.91643V17.2286ZM5.85929 15.1714H5.08786C5.08786 16.7336 6.35425 18 7.91643 18V17.2286V16.4571C7.20635 16.4571 6.63072 15.8815 6.63072 15.1714H5.85929ZM1.56179 13.5596L0.893712 13.9454C1.6748 15.2982 3.40473 15.7618 4.75761 14.9807L4.3719 14.3126L3.98618 13.6445C3.37124 13.9996 2.58491 13.7889 2.22986 13.1739L1.56179 13.5596ZM1.0475 12.6689L0.379426 13.0546L0.893712 13.9454L1.56179 13.5596L2.22986 13.1739L1.71558 12.2832L1.0475 12.6689ZM1.80047 9.85877L1.41475 9.19069C0.0618699 9.97178 -0.401663 11.7017 0.379426 13.0546L1.0475 12.6689L1.71558 12.2832C1.36054 11.6682 1.57124 10.8819 2.18618 10.5268L1.80047 9.85877ZM1.04753 5.33107L0.379449 4.94536C-0.401639 6.29824 0.0618937 8.02817 1.41478 8.80926L1.80049 8.14118L2.18621 7.47311C1.57126 7.11807 1.36056 6.33174 1.7156 5.71679L1.04753 5.33107ZM1.56181 4.4403L0.893735 4.05459L0.37945 4.94536L1.04753 5.33107L1.7156 5.71679L2.22989 4.82602L1.56181 4.4403ZM4.37192 3.68734L4.75764 3.01926C3.40475 2.23817 1.67482 2.70171 0.893735 4.05459L1.56181 4.4403L2.22989 4.82602C2.58493 4.21107 3.37126 4.00037 3.98621 4.35541L4.37192 3.68734ZM4.37192 3.68734L3.98621 4.35541C5.16159 5.03402 6.63072 4.18569 6.63072 2.82857H5.85929H5.08786C5.08786 2.99809 4.90436 3.10397 4.75764 3.01926L4.37192 3.68734ZM1.80047 9.85877L2.18618 10.5268C3.36153 9.84826 3.36162 8.15173 2.18621 7.47311L1.80049 8.14118L1.41478 8.80926C1.56155 8.894 1.56159 9.10591 1.41475 9.19069L1.80047 9.85877ZM5.85929 15.1714H6.63072C6.63072 13.8144 5.16161 12.9659 3.98618 13.6445L4.3719 14.3126L4.75761 14.9807C4.9043 14.896 5.08786 15.0018 5.08786 15.1714H5.85929ZM12.4897 14.3126L12.8754 13.6445C11.7001 12.9659 10.2307 13.8141 10.2307 15.1714H11.0021H11.7736C11.7736 15.0019 11.9571 14.8959 12.104 14.9807L12.4897 14.3126ZM15.0611 8.14118L14.6754 7.47311C13.5 8.15173 13.5001 9.84826 14.6754 10.5268L15.0611 9.85877L15.4469 9.19069C15.3 9.10591 15.3001 8.894 15.4468 8.80926L15.0611 8.14118ZM11.0021 2.82857H10.2307C10.2307 4.18589 11.7001 5.03398 12.8754 4.35541L12.4897 3.68734L12.104 3.01926C11.9571 3.10408 11.7736 2.99801 11.7736 2.82857H11.0021ZM10.6749 8.99993H9.9035C9.9035 9.8133 9.24414 10.4727 8.43077 10.4727V11.2441V12.0155C10.0962 12.0155 11.4464 10.6654 11.4464 8.99993H10.6749ZM8.43077 11.2441V10.4727C7.61741 10.4727 6.95805 9.8133 6.95805 8.99993H6.18662H5.41519C5.41519 10.6654 6.76531 12.0155 8.43077 12.0155V11.2441ZM6.18662 8.99993H6.95805C6.95805 8.18657 7.61741 7.5272 8.43077 7.5272V6.75578V5.98435C6.76531 5.98435 5.41519 7.33447 5.41519 8.99993H6.18662ZM8.43077 6.75578V7.5272C9.24414 7.5272 9.9035 8.18657 9.9035 8.99993H10.6749H11.4464C11.4464 7.33447 10.0962 5.98435 8.43077 5.98435V6.75578Z" fill="#131214"/>
</svg>
